<svg width="1200" height="900" viewBox="0 0 1200 900" fill="none" xmlns="http://www.w3.org/2000/svg">
  <defs>
    <linearGradient id="bg" x1="80" y1="40" x2="1080" y2="860" gradientUnits="userSpaceOnUse">
      <stop stop-color="#F97316"/>
      <stop offset="1" stop-color="#FDBA74"/>
    </linearGradient>
    <linearGradient id="card" x1="300" y1="220" x2="900" y2="760" gradientUnits="userSpaceOnUse">
      <stop stop-color="#0F172A"/>
      <stop offset="1" stop-color="#1E293B"/>
    </linearGradient>
  </defs>

  <rect width="1200" height="900" rx="48" fill="url(#bg)"/>
  <circle cx="1060" cy="140" r="180" fill="white" fill-opacity="0.18"/>
  <circle cx="170" cy="760" r="220" fill="white" fill-opacity="0.12"/>

  <rect x="220" y="170" width="760" height="560" rx="42" fill="url(#card)"/>
  <rect x="260" y="220" width="430" height="40" rx="20" fill="white" fill-opacity="0.2"/>
  <rect x="260" y="290" width="520" height="26" rx="13" fill="white" fill-opacity="0.16"/>
  <rect x="260" y="335" width="480" height="26" rx="13" fill="white" fill-opacity="0.16"/>

  <circle cx="840" cy="430" r="120" fill="white" fill-opacity="0.14"/>
  <circle cx="840" cy="410" r="56" fill="white"/>
  <path d="M748 555C770 501 799 474 840 474C881 474 910 501 932 555" fill="white"/>

  <rect x="260" y="410" width="230" height="220" rx="26" fill="white" fill-opacity="0.12"/>
  <rect x="280" y="445" width="190" height="20" rx="10" fill="white" fill-opacity="0.2"/>
  <rect x="280" y="480" width="150" height="20" rx="10" fill="white" fill-opacity="0.2"/>

  <text x="260" y="685" fill="white" font-size="42" font-family="Arial, sans-serif" font-weight="700">
    Producteurs partenaires GoBuy
  </text>
</svg>
